<?xml version="1.0" encoding="UTF-8" standalone="no"?>
<!-- Created with Inkscape (http://www.inkscape.org/) -->

<svg
   id="svg3390"
   version="1.1"
   width="100"
   height="75"
   viewBox="0 0 100 75"
   xmlns="http://www.w3.org/2000/svg"
   xmlns:svg="http://www.w3.org/2000/svg"
   xmlns:rdf="http://www.w3.org/1999/02/22-rdf-syntax-ns#"
   xmlns:cc="http://creativecommons.org/ns#"
   xmlns:dc="http://purl.org/dc/elements/1.1/">
  <metadata
     id="metadata3396">
    <rdf:RDF>
      <cc:Work
         rdf:about="">
        <dc:format>image/svg+xml</dc:format>
        <dc:type
           rdf:resource="http://purl.org/dc/dcmitype/StillImage" />
      </cc:Work>
    </rdf:RDF>
  </metadata>
  <defs
     id="defs3394" />
  <g
     id="layer1-9"
     transform="translate(-14.499185,12.271337)"
     style="display:inline">
    <path
       style="fill:none;fill-rule:evenodd;stroke:#ababab;stroke-width:3.12262;stroke-linecap:butt;stroke-linejoin:miter;stroke-miterlimit:4;stroke-dasharray:none;stroke-opacity:1"
       d="M 41.744111,41.092382 34.365125,14.712369"
       id="path3402-8" />
    <path
       style="fill:none;fill-rule:evenodd;stroke:#ababab;stroke-width:3.12262;stroke-linecap:butt;stroke-linejoin:miter;stroke-miterlimit:4;stroke-dasharray:none;stroke-opacity:1"
       d="M 36.770847,12.54722 50.122601,19.764384 62.632353,-1.2856744"
       id="path3406-2" />
    <circle
       r="4.8114429"
       cy="10.021217"
       cx="33.402836"
       id="path4217-4"
       style="opacity:1;fill:none;fill-opacity:1;stroke:#ababab;stroke-width:3.12262;stroke-linecap:butt;stroke-linejoin:miter;stroke-miterlimit:4;stroke-dasharray:none;stroke-opacity:1" />
    <path
       id="path4237-1"
       d="M 92.227537,12.54722 78.875783,19.764384 66.366033,-1.2856744"
       style="fill:none;fill-rule:evenodd;stroke:#ababab;stroke-width:3.12262;stroke-linecap:butt;stroke-linejoin:miter;stroke-miterlimit:4;stroke-dasharray:none;stroke-opacity:1" />
    <path
       id="path4235-5"
       d="M 87.254272,41.092382 94.633257,14.712369"
       style="fill:none;fill-rule:evenodd;stroke:#ababab;stroke-width:3.12262;stroke-linecap:butt;stroke-linejoin:miter;stroke-miterlimit:4;stroke-dasharray:none;stroke-opacity:1" />
    <circle
       style="fill:none;fill-opacity:1;stroke:#ababab;stroke-width:3.12262;stroke-linecap:butt;stroke-linejoin:miter;stroke-miterlimit:4;stroke-dasharray:none;stroke-opacity:1"
       id="circle4239-7"
       cx="-95.595535"
       cy="10.021217"
       r="4.8114429"
       transform="scale(-1,1)" />
    <circle
       r="4.8114429"
       cy="-5.7362571"
       cx="-64.441452"
       id="circle4241-1"
       style="fill:none;fill-opacity:1;stroke:#ababab;stroke-width:3.12262;stroke-linecap:butt;stroke-linejoin:miter;stroke-miterlimit:4;stroke-dasharray:none;stroke-opacity:1"
       transform="scale(-1,1)" />
  </g>
  <g
     id="layer4"
     style="display:inline" />
  <g
     id="9484fa0e-2463-4d8f-b7df-eb574f32e5df"
     transform="matrix(0.0172499,0,0,0.0172499,19.523662,13.171303)"
     style="display:inline">
    <g
       id="g2">
      <g
         id="3dc17a97-a90c-40fe-a5ab-cd2ca4519ab3">
        <path
           style="opacity:1;fill:#928ddf;fill-opacity:0.832707;fill-rule:nonzero;stroke:#1229a3;stroke-width:83.4033;stroke-linecap:butt;stroke-linejoin:miter;stroke-miterlimit:4;stroke-dasharray:none;stroke-dashoffset:0;stroke-opacity:1"
           d="m 1762.2412,3538.747 c -69.8982,0.7892 -139.571,-6.7643 -207.6654,-22.5478 -61.6682,-15.1071 -120.518,-40.2479 -174.0691,-74.2951 L 450.22608,2851.8143 c -46.78671,-29.1994 -84.32882,-70.9129 -108.45498,-120.4054 -23.14908,-48.2522 -34.72363,-109.8829 -34.72363,-184.892 V 1393.7944 c -1.46561,-69.8982 8.90638,-139.4582 30.55228,-205.8615 19.6166,-57.1587 52.19819,-108.906 95.15178,-151.4086 48.70327,-46.4485 104.84733,-84.32882 166.29011,-111.83714 L 1595.8383,405.59917 c 27.5083,-13.19047 56.4823,-22.99877 86.2454,-29.31216 83.0887,-17.81277 169.785,-7.55351 246.4477,29.31216 l 996.9092,519.08797 c 61.6684,27.28285 118.0379,65.16318 166.6283,111.83716 42.7282,42.6154 75.0843,94.3626 94.8137,151.4086 21.6459,66.4033 31.9051,135.9633 30.5523,205.8615 v 1152.7225 c 0,75.1594 -11.5746,136.7901 -34.7237,184.892 -24.3516,49.4925 -62.0065,91.206 -108.9059,120.2926 l -930.2806,590.0899 c -53.4384,34.0472 -111.9499,59.0753 -173.3926,74.295 -68.0945,15.7834 -137.9927,23.4498 -207.8909,22.6606 z"
           id="path19" />
        <path
           style="opacity:1;fill:#fefeff;fill-opacity:0.83270699;fill-rule:nonzero;stroke:#1229a3;stroke-width:83.4033;stroke-linecap:butt;stroke-linejoin:miter;stroke-miterlimit:4;stroke-dasharray:none;stroke-dashoffset:0;stroke-opacity:1"
           d="m 2029.7525,3129.8527 c 42.3147,0 87.5339,-14.8359 135.2869,-45.0957 l 662.9057,-420.0658 c 32.873,-20.8307 61.431,-48.167 77.2262,-83.7651 14.4213,-32.5019 20.9695,-79.744 20.9695,-141.1493 v -777.1103 c 0,-60.6536 2.2189,-105.656 -9.3556,-134.3669 -11.5746,-28.7109 -38.3706,-42.7462 -64.3758,-42.7462 -23.2242,0 -54.2586,11.6755 -93.3478,34.6109 -250.6189,147.0494 -501.2378,294.0988 -751.8569,441.1479 -41.6901,24.4614 -70.3867,51.1084 -86.6964,78.9174 -16.3096,27.809 -24.5771,65.3886 -24.5771,112.739 v 800.4474 c 0,63.0587 13.2531,107.8818 38.895,135.2868 24.6427,26.3371 58.8498,41.6007 94.9263,41.1499 z"
           id="path18" />
        <path
           style="opacity:1;fill:#928ddf;fill-opacity:0.832707;fill-rule:nonzero;stroke:#1229a3;stroke-width:83.4033;stroke-linecap:butt;stroke-linejoin:miter;stroke-miterlimit:4;stroke-dasharray:none;stroke-dashoffset:0;stroke-opacity:1"
           d="m 2157.0762,2848.6699 c -21.7798,0.8242 -43.4901,-6.6518 -58.0321,-22.6607 -15.3381,-16.8854 -21.5937,-39.5378 -21.0083,-62.1313 0.7337,-28.3166 7.9632,-55.9972 21.9504,-80.7985 14.0893,-24.9824 33.2527,-46.6429 56.5249,-63.6172 20.9143,-15.2545 45.9827,-23.7761 71.9748,-24.6111 20.27,-0.6511 40.4932,6.8842 53.0389,22.6607 14.13,17.7688 19.5159,40.4581 18.8417,63.06 -0.8335,27.9422 -7.4741,55.2303 -20.9143,79.87 -13.4101,24.5845 -31.8749,45.9606 -54.0752,63.1528 -19.5378,15.1302 -43.4416,24.1346 -68.3008,25.0753 z"
           id="path17" />
        <path
           style="opacity:1;fill:#928ddf;fill-opacity:0.832707;fill-rule:nonzero;stroke:#1229a3;stroke-width:83.4033;stroke-linecap:butt;stroke-linejoin:miter;stroke-miterlimit:4;stroke-dasharray:none;stroke-dashoffset:0;stroke-opacity:1"
           d="m 2398.255,2446.7382 c -21.7798,0.8242 -43.4901,-6.6518 -58.0321,-22.6607 -15.3381,-16.8854 -21.5937,-39.5378 -21.0083,-62.1313 0.7337,-28.3166 7.9632,-55.9972 21.9504,-80.7985 14.0893,-24.9824 33.2527,-46.6429 56.5249,-63.6172 20.9143,-15.2545 45.9827,-23.7761 71.9748,-24.6111 20.27,-0.6511 40.4932,6.8842 53.0389,22.6607 14.13,17.7688 19.5159,40.4581 18.8417,63.06 -0.8335,27.9422 -7.4741,55.2303 -20.9143,79.87 -13.4101,24.5845 -31.8749,45.9606 -54.0752,63.1528 -19.5378,15.1302 -43.4416,24.1346 -68.3008,25.0753 z"
           id="path16" />
        <path
           style="opacity:1;fill:#928ddf;fill-opacity:0.832707;fill-rule:nonzero;stroke:#1229a3;stroke-width:83.4033;stroke-linecap:butt;stroke-linejoin:miter;stroke-miterlimit:4;stroke-dasharray:none;stroke-dashoffset:0;stroke-opacity:1"
           d="m 2615.0701,2048.9264 c -21.7798,0.8242 -43.4901,-6.6518 -58.0321,-22.6607 -15.3381,-16.8854 -21.5937,-39.5378 -21.0083,-62.1313 0.7337,-28.3166 7.9632,-55.9972 21.9504,-80.7985 14.0893,-24.9824 33.2527,-46.6429 56.5249,-63.6172 20.9143,-15.2545 45.9827,-23.7761 71.9748,-24.6111 20.27,-0.6511 40.4932,6.8842 53.0389,22.6607 14.13,17.7688 19.5159,40.4581 18.8417,63.06 -0.8335,27.9422 -7.4741,55.2303 -20.9143,79.87 -13.4101,24.5845 -31.8749,45.9606 -54.0752,63.1528 -19.5378,15.1302 -43.4416,24.1346 -68.3008,25.0753 z"
           id="path15" />
        <path
           style="opacity:1;fill:#fefeff;fill-opacity:0.83270699;fill-rule:nonzero;stroke:#1229a3;stroke-width:83.4033;stroke-linecap:butt;stroke-linejoin:miter;stroke-miterlimit:4;stroke-dasharray:none;stroke-dashoffset:0;stroke-opacity:1"
           d="m 1762.2412,1760.1367 c 18.7147,0 37.3166,-3.2695 55.0165,-9.5829 21.195,-7.6662 41.6008,-17.2491 60.992,-28.7485 l 746.7835,-437.9912 c 24.2389,-13.1904 46.1103,-30.3268 64.5994,-50.8453 13.0779,-13.7541 20.7441,-31.9051 21.5332,-50.8453 -1.2401,-21.1949 -10.9357,-40.9243 -26.8319,-55.0167 -24.3516,-22.5478 -52.4235,-40.6988 -82.8631,-53.7765 L 1881.0681,729.92713 c -19.7293,-10.25927 -40.5861,-18.151 -62.2319,-23.44973 -37.0912,-8.79365 -75.648,-8.79365 -112.7391,0 -21.6459,5.29873 -42.5026,13.19046 -62.232,23.44973 L 923.34975,1073.3303 c -30.32678,13.3032 -58.28608,31.4542 -82.63771,53.8893 -16.23443,13.8669 -26.15546,33.709 -27.50833,55.0166 0.90191,18.9402 8.56817,36.9785 21.53316,50.8454 18.4892,20.4057 40.24784,37.6548 64.374,50.8453 L 1646.12,1721.9181 c 19.391,11.4994 39.7968,21.0822 60.9917,28.7484 17.7001,6.2007 36.3021,9.4702 55.1295,9.4702 z"
           id="path14" />
        <path
           style="opacity:1;fill:#928ddf;fill-opacity:0.832707;fill-rule:nonzero;stroke:#1229a3;stroke-width:83.4033;stroke-linecap:butt;stroke-linejoin:miter;stroke-miterlimit:4;stroke-dasharray:none;stroke-dashoffset:0;stroke-opacity:1"
           d="m 1762.241,1401.8397 c -75.2201,1.8842 -149.141,-18.0177 -210.9797,-56.8793 -58.8076,-37.9196 -88.2547,-83.533 -88.3413,-136.8402 -0.088,-53.3072 29.1006,-98.7243 87.5617,-136.2513 62.2288,-38.5084 136.4094,-60.214 211.7593,-58.2121 76.6308,1.8411 149.4006,19.7037 211.6292,58.2121 58.4612,37.4484 87.6484,82.8656 87.5618,136.2513 -0.09,53.3857 -29.4905,98.9991 -88.2113,136.8402 -61.8389,38.8616 -135.7597,58.7635 -210.9797,56.8793 z"
           id="path13" />
        <path
           style="opacity:1;fill:#fefeff;fill-opacity:0.83270699;fill-rule:nonzero;stroke:#1229a3;stroke-width:83.4033;stroke-linecap:butt;stroke-linejoin:miter;stroke-miterlimit:4;stroke-dasharray:none;stroke-dashoffset:0;stroke-opacity:1"
           d="m 1490.9588,3129.7749 c 36.1893,0.451 70.8001,-14.5433 95.1518,-41.1497 25.93,-27.1326 38.8949,-72.2282 38.8949,-135.2869 v -800.4474 c 0,-47.1249 -8.1546,-84.7045 -24.4643,-112.739 -16.3096,-28.0345 -45.2459,-54.3402 -86.809,-78.9173 l -751.51867,-441.148 c -39.15802,-23.149 -70.27401,-34.6859 -93.34795,-34.6109 -26.38092,0 -52.85676,14.3555 -64.0555,43.0664 -11.19875,28.7108 -9.45035,73.3931 -10.12678,134.0467 v 776.6594 c 0,61.4052 7.17772,108.4549 21.53316,141.1493 16.4599,35.0618 43.06632,64.2613 76.54981,83.7652 l 663.01853,420.0656 c 47.9516,30.3644 93.0097,45.5466 135.174,45.5466 z"
           id="path12" />
        <path
           style="opacity:1;fill:#928ddf;fill-opacity:0.832707;fill-rule:nonzero;stroke:#1229a3;stroke-width:83.4033;stroke-linecap:butt;stroke-linejoin:miter;stroke-miterlimit:4;stroke-dasharray:none;stroke-dashoffset:0;stroke-opacity:1"
           d="m 1320.1233,2777.5153 c -31.9799,-0.5983 -62.762,-11.7379 -87.6751,-31.7403 -28.5064,-21.799 -51.9822,-49.5867 -68.631,-81.4469 -17.487,-31.5007 -26.59,-66.9541 -26.7096,-103.0063 -1.7968,-29.1052 6.7074,-57.8511 23.9549,-81.327 16.6487,-19.7628 41.5617,-30.5425 67.3134,-29.2251 33.4171,0.3594 65.7563,11.4985 92.2264,31.7405 29.9437,21.7989 54.7371,50.0658 72.4638,82.6444 18.2058,31.5008 27.7877,67.1937 28.0273,103.6053 1.6769,29.1052 -7.9051,57.851 -26.7098,80.1291 -19.2838,20.1223 -46.4726,30.1835 -74.2603,28.6263 z"
           id="path11" />
        <path
           style="opacity:1;fill:#928ddf;fill-opacity:0.832707;fill-rule:nonzero;stroke:#1229a3;stroke-width:83.4033;stroke-linecap:butt;stroke-linejoin:miter;stroke-miterlimit:4;stroke-dasharray:none;stroke-dashoffset:0;stroke-opacity:1"
           d="m 996.14616,2250.3891 c -34.77314,-0.5423 -68.37418,-13.2805 -95.46334,-35.9118 -30.86606,-24.5282 -56.26217,-55.8325 -74.49528,-91.4731 -19.01453,-35.6406 -29.04275,-75.7532 -29.17298,-116.5435 -1.95354,-32.9304 7.29323,-65.4541 26.0473,-92.0153 18.10287,-22.3601 45.19206,-34.5566 73.19291,-33.0658 36.20574,0.5421 71.36958,13.0095 100.28205,35.9115 32.29868,24.5285 58.99708,56.2392 78.14188,92.8284 19.6657,35.6408 30.0848,76.0244 30.3451,117.2212 1.8234,32.9304 -8.5955,65.4541 -29.0427,90.66 -20.7076,22.6312 -49.8806,34.0146 -79.83494,32.3884 z"
           id="path1" />
      </g>
    </g>
  </g>
</svg>
