<?xml version="1.0"?>
<svg width="900" height="500" xmlns="http://www.w3.org/2000/svg" xmlns:svg="http://www.w3.org/2000/svg" class="svg-icon" version="1.1">
 <g class="layer">
  <title>Layer 1</title>
  <path d="m62,250c0,0 68,84 68,84c0,0 213,118 214,118c1,0 181,-7 181,-7c0,0 131,-38 131,-38c0,0 130,-93 130,-93c0,0 53,-74 53,-74c0,0 -57,-83 -57,-83c0,0 -113,-62 -113,-62c0,0 -190,-48 -190,-48c0,0 -158,4 -158,4c0,0 -137,59 -137,59c0,0 -102,73 -102,73c0,0 -32,33 -12,37" fill="#bfbfbf" id="svg_9" opacity="0.8" transform="matrix(1 0 0 1 0 0)"/>
  <path d="m892.52,235.38c-6.02,-9.06 -151.23,-221.77 -442.09,-221.77c-290.83,0 -436.04,212.71 -442.1,221.77a27.94,27.94 0 0 0 0,30.96c6.06,9.05 151.27,221.76 442.1,221.76c290.85,0 436.07,-212.71 442.09,-221.76a27.83,27.83 0 0 0 0,-30.96zm-442.09,192.9c-216.49,0 -335.78,-131.06 -373.79,-177.48c37.87,-46.51 156.48,-178.37 373.79,-178.37c216.52,0 332.77,131.06 370.79,177.48c-37.87,46.51 -153.48,178.37 -370.79,178.37z" fill="#040000" id="svg_1" transform="matrix(1 0 0 1 0 0)"/>
  <path d="m341,265l37,63c0,0 89,16 89,16c0,0 36,-16 36,-16c0,0 28,-40 28,-40c0,0 2,-51 2,-51c0,0 -10,-43 -10,-43c0,0 -37,-29 -37,-29c0,0 -62,-5 -63,-5c-1,0 -28,16 -28,16c0,0 -29,28 -29,28" fill="#bcbf00" id="svg_11" opacity="0.35"/>
  <path d="m448.93,128.26c-72.88,0 -132.16,51.36 -132.16,123.1c0,71.74 59.28,127.1 132.16,127.1c72.87,0 132.16,-55.36 132.16,-127.1c0,-71.74 -59.29,-123.1 -132.16,-123.1zm0,197.37c-40.47,0 -73.42,-34.42 -73.42,-74.27c0,-39.86 32.95,-72.28 73.42,-72.28c40.49,0 73.42,32.42 73.42,72.28c0,39.85 -32.93,74.27 -73.42,74.27z" fill="#040000" id="svg_2"/>
 </g>
</svg>