<?xml version="1.0"?>
<svg width="900" height="500" xmlns="http://www.w3.org/2000/svg" xmlns:svg="http://www.w3.org/2000/svg" class="svg-icon" version="1.1">
 <g class="layer">
  <title>Layer 1</title>
  <path d="m891.52,235.38c-6.02,-9.06 -151.23,-221.77 -442.09,-221.77c-290.83,0 -436.04,212.71 -442.1,221.77a27.94,27.94 0 0 0 0,30.96c6.06,9.05 151.27,221.76 442.1,221.76c290.85,0 436.07,-212.71 442.09,-221.76a27.83,27.83 0 0 0 0,-30.96zm-442.09,192.9c-216.49,0 -335.78,-131.06 -373.79,-177.48c37.87,-46.51 156.48,-178.37 373.79,-178.37c216.52,0 332.77,131.06 370.79,177.48c-37.87,46.51 -153.48,178.37 -370.79,178.37z" fill="#040000" id="svg_1"/>
  <path d="m448.93,121.26c-72.88,0 -132.16,58.36 -132.16,130.1c0,71.74 59.28,130.1 132.16,130.1c72.87,0 132.16,-58.36 132.16,-130.1c0,-71.74 -59.29,-130.1 -132.16,-130.1zm0,202.37c-40.47,0 -73.42,-32.42 -73.42,-72.27c0,-39.86 32.95,-72.28 73.42,-72.28c40.49,0 73.42,32.42 73.42,72.28c0,39.85 -32.93,72.27 -73.42,72.27z" fill="#040000" id="svg_2"/>
 </g>
</svg>