<?xml version="1.0" standalone="no"?>
<!DOCTYPE svg PUBLIC "-//W3C//DTD SVG 20010904//EN"
 "http://www.w3.org/TR/2001/REC-SVG-20010904/DTD/svg10.dtd">
<svg version="1.0" xmlns="http://www.w3.org/2000/svg"
 viewBox="0 0 2604.000000 2600.000000"
 preserveAspectRatio="xMidYMid meet">
<metadata>
Created by potrace 1.13, written by Peter Selinger 2001-2015
</metadata>
<g transform="translate(0.000000,2600.000000) scale(0.100000,-0.100000)"
fill="#008080" stroke="none">
<path d="M9437 20473 c-4 -3 -7 -3365 -7 -7470 l0 -7463 3600 0 3600 0 0 7470
0 7470 -3593 0 c-1977 0 -3597 -3 -3600 -7z m4043 -3733 l0 -1990 -450 0 -450
0 0 1575 c0 998 -4 1575 -10 1575 -5 0 -178 -81 -385 -179 -350 -167 -375
-178 -380 -158 -41 177 -145 663 -143 669 2 5 239 118 528 252 l525 244 383 1
382 1 0 -1990z"/>
<path d="M1587 15493 c-4 -3 -7 -2244 -7 -4980 l0 -4973 3600 0 3600 0 0 4980
0 4980 -3593 0 c-1977 0 -3597 -3 -3600 -7z m3874 -1512 c290 -50 535 -169
715 -347 175 -172 286 -403 325 -673 16 -117 6 -380 -20 -492 -66 -287 -212
-560 -455 -851 -149 -178 -457 -476 -711 -687 -121 -101 -221 -190 -223 -197
-3 -12 114 -14 747 -14 l751 0 0 -380 0 -380 -1410 0 -1410 0 1 283 0 282 301
270 c644 578 888 812 1088 1040 299 342 420 583 423 845 2 181 -43 301 -154
413 -76 76 -147 114 -274 147 -102 27 -302 29 -420 6 -181 -36 -380 -122 -558
-240 -48 -32 -90 -56 -93 -54 -2 3 -63 150 -134 327 l-128 322 71 50 c102 72
341 188 488 237 144 48 312 86 449 101 52 6 111 13 130 15 86 10 390 -4 501
-23z"/>
<path d="M17280 9340 l0 -3800 3600 0 3600 0 0 3800 0 3800 -3600 0 -3600 0 0
-3800z m3555 2480 c465 -38 813 -210 1004 -496 101 -151 144 -299 143 -494 0
-187 -38 -329 -124 -474 -52 -88 -168 -210 -262 -275 -69 -47 -231 -132 -304
-158 -42 -15 -34 -29 21 -38 66 -11 205 -63 287 -107 254 -135 426 -353 496
-628 29 -114 27 -363 -5 -484 -133 -511 -577 -839 -1262 -932 -169 -23 -508
-23 -684 0 -310 41 -622 132 -791 231 l-41 24 68 253 c38 139 80 297 95 350
l26 97 67 -33 c81 -41 227 -96 343 -131 281 -84 585 -101 803 -45 300 77 474
299 437 560 -31 218 -173 370 -425 455 -129 43 -239 55 -509 55 l-248 0 0 334
0 334 283 5 c322 4 383 15 537 89 187 90 284 258 250 433 -41 209 -211 325
-515 350 -209 17 -535 -58 -784 -180 l-110 -54 -20 67 c-11 37 -52 182 -91
322 -40 140 -74 259 -77 266 -10 28 257 148 454 203 312 88 647 124 938 101z"/>
</g>
</svg>
